<?xml version="1.0" encoding="UTF-8"?> <svg xmlns="http://www.w3.org/2000/svg" width="275" height="42" viewBox="0 0 275 42" fill="none"><path d="M0 10C0 4.47715 4.47715 0 10 0H265C270.523 0 275 4.47715 275 10V32C275 37.5228 270.523 42 265 42H0V10Z" fill="#E6E6E6"></path><path d="M15.8442 18.9453C15.8442 18.6631 15.8 18.4141 15.7114 18.1982C15.6284 17.9769 15.479 17.7777 15.2632 17.6006C15.0529 17.4235 14.7596 17.2547 14.3833 17.0942C14.0125 16.9338 13.5422 16.7705 12.9722 16.6045C12.3745 16.4274 11.835 16.231 11.3535 16.0151C10.8721 15.7938 10.4598 15.542 10.1167 15.2598C9.7736 14.9775 9.51074 14.6538 9.32812 14.2886C9.14551 13.9233 9.0542 13.5055 9.0542 13.0352C9.0542 12.5648 9.15104 12.1304 9.34473 11.7319C9.53841 11.3335 9.8151 10.9876 10.1748 10.6943C10.54 10.3955 10.9744 10.1631 11.478 9.99707C11.9816 9.83105 12.5433 9.74805 13.1631 9.74805C14.0706 9.74805 14.8398 9.92236 15.4707 10.271C16.1071 10.6141 16.5913 11.0651 16.9233 11.624C17.2554 12.1774 17.4214 12.7695 17.4214 13.4004H15.8276C15.8276 12.9466 15.7308 12.5454 15.5371 12.1968C15.3434 11.8426 15.0501 11.5659 14.6572 11.3667C14.2643 11.1619 13.7663 11.0596 13.1631 11.0596C12.5931 11.0596 12.1227 11.1453 11.752 11.3169C11.3812 11.4884 11.1045 11.7209 10.9219 12.0142C10.7448 12.3075 10.6562 12.6423 10.6562 13.0186C10.6562 13.2731 10.7088 13.5055 10.814 13.7158C10.9246 13.9206 11.0934 14.1115 11.3203 14.2886C11.5527 14.4657 11.846 14.6289 12.2002 14.7783C12.5599 14.9277 12.9888 15.0716 13.4868 15.21C14.173 15.4036 14.7651 15.6195 15.2632 15.8574C15.7612 16.0954 16.1707 16.3638 16.4917 16.6626C16.8182 16.9559 17.0589 17.2907 17.2139 17.667C17.3743 18.0378 17.4546 18.4583 17.4546 18.9287C17.4546 19.4212 17.355 19.8667 17.1558 20.2651C16.9565 20.6636 16.6715 21.0039 16.3008 21.2861C15.93 21.5684 15.4845 21.7869 14.9644 21.9419C14.4497 22.0913 13.8742 22.166 13.2378 22.166C12.6789 22.166 12.1283 22.0885 11.5859 21.9336C11.0492 21.7786 10.5594 21.5462 10.1167 21.2363C9.67952 20.9264 9.32812 20.5446 9.0625 20.0908C8.80241 19.6315 8.67236 19.1003 8.67236 18.4971H10.2661C10.2661 18.9121 10.3464 19.269 10.5068 19.5679C10.6673 19.8612 10.8859 20.1047 11.1626 20.2983C11.4448 20.492 11.763 20.6359 12.1172 20.73C12.4769 20.8185 12.8504 20.8628 13.2378 20.8628C13.7967 20.8628 14.2699 20.7853 14.6572 20.6304C15.0446 20.4754 15.3379 20.2541 15.5371 19.9663C15.7419 19.6785 15.8442 19.3382 15.8442 18.9453ZM18.8574 17.6089V17.418C18.8574 16.7705 18.9515 16.1701 19.1396 15.6167C19.3278 15.0578 19.599 14.5736 19.9531 14.1641C20.3073 13.749 20.7362 13.4281 21.2397 13.2012C21.7433 12.9688 22.3078 12.8525 22.9331 12.8525C23.564 12.8525 24.1312 12.9688 24.6348 13.2012C25.1439 13.4281 25.5755 13.749 25.9297 14.1641C26.2894 14.5736 26.5633 15.0578 26.7515 15.6167C26.9396 16.1701 27.0337 16.7705 27.0337 17.418V17.6089C27.0337 18.2563 26.9396 18.8568 26.7515 19.4102C26.5633 19.9635 26.2894 20.4478 25.9297 20.8628C25.5755 21.2723 25.1466 21.5933 24.6431 21.8257C24.145 22.0526 23.5806 22.166 22.9497 22.166C22.3188 22.166 21.7516 22.0526 21.248 21.8257C20.7445 21.5933 20.3128 21.2723 19.9531 20.8628C19.599 20.4478 19.3278 19.9635 19.1396 19.4102C18.9515 18.8568 18.8574 18.2563 18.8574 17.6089ZM20.3931 17.418V17.6089C20.3931 18.0571 20.4456 18.4805 20.5508 18.8789C20.6559 19.2718 20.8136 19.6204 21.0239 19.9248C21.2397 20.2292 21.5081 20.4699 21.8291 20.647C22.1501 20.8185 22.5236 20.9043 22.9497 20.9043C23.3703 20.9043 23.7383 20.8185 24.0537 20.647C24.3747 20.4699 24.6403 20.2292 24.8506 19.9248C25.0609 19.6204 25.2186 19.2718 25.3237 18.8789C25.4344 18.4805 25.4897 18.0571 25.4897 17.6089V17.418C25.4897 16.9753 25.4344 16.5575 25.3237 16.1646C25.2186 15.7661 25.0581 15.4147 24.8423 15.1104C24.632 14.8005 24.3664 14.557 24.0454 14.3799C23.73 14.2028 23.3592 14.1143 22.9331 14.1143C22.5125 14.1143 22.1418 14.2028 21.8208 14.3799C21.5054 14.557 21.2397 14.8005 21.0239 15.1104C20.8136 15.4147 20.6559 15.7661 20.5508 16.1646C20.4456 16.5575 20.3931 16.9753 20.3931 17.418ZM34.7119 14.7451V25.4531H33.168V13.0186H34.5791L34.7119 14.7451ZM40.7632 17.4346V17.6089C40.7632 18.2619 40.6857 18.8678 40.5308 19.4268C40.3758 19.9801 40.1489 20.4616 39.8501 20.8711C39.5568 21.2806 39.1943 21.5988 38.7627 21.8257C38.3311 22.0526 37.8358 22.166 37.2769 22.166C36.7069 22.166 36.2033 22.0719 35.7661 21.8838C35.3289 21.6956 34.9582 21.4217 34.6538 21.062C34.3494 20.7023 34.106 20.2707 33.9233 19.7671C33.7463 19.2635 33.6245 18.6963 33.5581 18.0654V17.1357C33.6245 16.4717 33.749 15.8768 33.9316 15.3511C34.1143 14.8254 34.355 14.3771 34.6538 14.0063C34.9582 13.63 35.3262 13.3451 35.7578 13.1514C36.1895 12.9521 36.6875 12.8525 37.252 12.8525C37.8164 12.8525 38.3172 12.9632 38.7544 13.1846C39.1916 13.4004 39.5596 13.7103 39.8584 14.1143C40.1572 14.5182 40.3813 15.0024 40.5308 15.5669C40.6857 16.1258 40.7632 16.7484 40.7632 17.4346ZM39.2192 17.6089V17.4346C39.2192 16.9863 39.1722 16.5658 39.0781 16.1729C38.984 15.7744 38.8374 15.4258 38.6382 15.127C38.4445 14.8226 38.1955 14.5846 37.8911 14.4131C37.5868 14.236 37.2243 14.1475 36.8037 14.1475C36.4163 14.1475 36.0788 14.2139 35.791 14.3467C35.5088 14.4795 35.2681 14.6593 35.0688 14.8862C34.8696 15.1076 34.7064 15.3621 34.5791 15.6499C34.4574 15.9321 34.366 16.2254 34.3052 16.5298V18.6797C34.4159 19.0671 34.5708 19.4323 34.77 19.7754C34.9692 20.113 35.2349 20.3869 35.5669 20.5972C35.8989 20.8019 36.3167 20.9043 36.8203 20.9043C37.2354 20.9043 37.5923 20.8185 37.8911 20.647C38.1955 20.4699 38.4445 20.2292 38.6382 19.9248C38.8374 19.6204 38.984 19.2718 39.0781 18.8789C39.1722 18.4805 39.2192 18.0571 39.2192 17.6089ZM44.2578 14.4297V22H42.7222V13.0186H44.2163L44.2578 14.4297ZM47.0635 12.9688L47.0552 14.3965C46.9279 14.3688 46.8062 14.3522 46.6899 14.3467C46.5793 14.3356 46.452 14.3301 46.3081 14.3301C45.9539 14.3301 45.6413 14.3854 45.3701 14.4961C45.099 14.6068 44.8693 14.7617 44.6812 14.9609C44.493 15.1602 44.3436 15.3981 44.2329 15.6748C44.1278 15.946 44.0586 16.2448 44.0254 16.5713L43.5938 16.8203C43.5938 16.278 43.6463 15.7689 43.7515 15.293C43.8621 14.8171 44.0309 14.3965 44.2578 14.0312C44.4847 13.6605 44.7725 13.3727 45.1211 13.168C45.4753 12.9577 45.8958 12.8525 46.3828 12.8525C46.4935 12.8525 46.6208 12.8664 46.7646 12.894C46.9085 12.9162 47.0081 12.9411 47.0635 12.9688ZM47.9102 17.6089V17.418C47.9102 16.7705 48.0042 16.1701 48.1924 15.6167C48.3805 15.0578 48.6517 14.5736 49.0059 14.1641C49.36 13.749 49.7889 13.4281 50.2925 13.2012C50.7961 12.9688 51.3605 12.8525 51.9858 12.8525C52.6167 12.8525 53.1839 12.9688 53.6875 13.2012C54.1966 13.4281 54.6283 13.749 54.9824 14.1641C55.3421 14.5736 55.616 15.0578 55.8042 15.6167C55.9924 16.1701 56.0864 16.7705 56.0864 17.418V17.6089C56.0864 18.2563 55.9924 18.8568 55.8042 19.4102C55.616 19.9635 55.3421 20.4478 54.9824 20.8628C54.6283 21.2723 54.1994 21.5933 53.6958 21.8257C53.1978 22.0526 52.6333 22.166 52.0024 22.166C51.3716 22.166 50.8044 22.0526 50.3008 21.8257C49.7972 21.5933 49.3656 21.2723 49.0059 20.8628C48.6517 20.4478 48.3805 19.9635 48.1924 19.4102C48.0042 18.8568 47.9102 18.2563 47.9102 17.6089ZM49.4458 17.418V17.6089C49.4458 18.0571 49.4984 18.4805 49.6035 18.8789C49.7087 19.2718 49.8664 19.6204 50.0767 19.9248C50.2925 20.2292 50.5609 20.4699 50.8818 20.647C51.2028 20.8185 51.5763 20.9043 52.0024 20.9043C52.423 20.9043 52.791 20.8185 53.1064 20.647C53.4274 20.4699 53.693 20.2292 53.9033 19.9248C54.1136 19.6204 54.2713 19.2718 54.3765 18.8789C54.4871 18.4805 54.5425 18.0571 54.5425 17.6089V17.418C54.5425 16.9753 54.4871 16.5575 54.3765 16.1646C54.2713 15.7661 54.1108 15.4147 53.895 15.1104C53.6847 14.8005 53.4191 14.557 53.0981 14.3799C52.7827 14.2028 52.4119 14.1143 51.9858 14.1143C51.5653 14.1143 51.1945 14.2028 50.8735 14.3799C50.5581 14.557 50.2925 14.8005 50.0767 15.1104C49.8664 15.4147 49.7087 15.7661 49.6035 16.1646C49.4984 16.5575 49.4458 16.9753 49.4458 17.418ZM63.5073 19.9248V13.0186H65.0513V22H63.582L63.5073 19.9248ZM63.7979 18.0322L64.437 18.0156C64.437 18.6133 64.3734 19.1667 64.2461 19.6758C64.1243 20.1794 63.9251 20.6165 63.6484 20.9873C63.3717 21.3581 63.0093 21.6486 62.561 21.8589C62.1128 22.0636 61.5677 22.166 60.9258 22.166C60.4886 22.166 60.0874 22.1024 59.7222 21.9751C59.3625 21.8478 59.0526 21.6514 58.7925 21.3857C58.5324 21.1201 58.3304 20.7743 58.1865 20.3481C58.0482 19.922 57.979 19.4102 57.979 18.8125V13.0186H59.5146V18.8291C59.5146 19.2331 59.5589 19.5679 59.6475 19.8335C59.7415 20.0936 59.866 20.3011 60.021 20.4561C60.1815 20.6055 60.3586 20.7106 60.5522 20.7715C60.7515 20.8324 60.9562 20.8628 61.1665 20.8628C61.8195 20.8628 62.3369 20.7383 62.7188 20.4893C63.1006 20.2347 63.3745 19.8944 63.5405 19.4683C63.7121 19.0366 63.7979 18.5579 63.7979 18.0322ZM73.0532 20.2568V9.25H74.5972V22H73.186L73.0532 20.2568ZM67.0103 17.6089V17.4346C67.0103 16.7484 67.0933 16.1258 67.2593 15.5669C67.4308 15.0024 67.6715 14.5182 67.9814 14.1143C68.2969 13.7103 68.6704 13.4004 69.1021 13.1846C69.5392 12.9632 70.0262 12.8525 70.563 12.8525C71.1274 12.8525 71.62 12.9521 72.0405 13.1514C72.4666 13.3451 72.8263 13.63 73.1196 14.0063C73.4185 14.3771 73.6536 14.8254 73.8252 15.3511C73.9967 15.8768 74.1157 16.4717 74.1821 17.1357V17.8994C74.1213 18.5579 74.0023 19.1501 73.8252 19.6758C73.6536 20.2015 73.4185 20.6497 73.1196 21.0205C72.8263 21.3913 72.4666 21.6763 72.0405 21.8755C71.6144 22.0692 71.1164 22.166 70.5464 22.166C70.0207 22.166 69.5392 22.0526 69.1021 21.8257C68.6704 21.5988 68.2969 21.2806 67.9814 20.8711C67.6715 20.4616 67.4308 19.9801 67.2593 19.4268C67.0933 18.8678 67.0103 18.2619 67.0103 17.6089ZM68.5542 17.4346V17.6089C68.5542 18.0571 68.5985 18.4777 68.687 18.8706C68.7811 19.2635 68.925 19.6094 69.1187 19.9082C69.3123 20.207 69.5586 20.4422 69.8574 20.6138C70.1562 20.7798 70.5132 20.8628 70.9282 20.8628C71.4373 20.8628 71.8551 20.7549 72.1816 20.5391C72.5137 20.3232 72.7793 20.0382 72.9785 19.6841C73.1777 19.3299 73.3327 18.9453 73.4434 18.5303V16.5298C73.377 16.2254 73.2801 15.9321 73.1528 15.6499C73.0311 15.3621 72.8706 15.1076 72.6714 14.8862C72.4777 14.6593 72.237 14.4795 71.9492 14.3467C71.667 14.2139 71.3322 14.1475 70.9448 14.1475C70.5243 14.1475 70.1618 14.236 69.8574 14.4131C69.5586 14.5846 69.3123 14.8226 69.1187 15.127C68.925 15.4258 68.7811 15.7744 68.687 16.1729C68.5985 16.5658 68.5542 16.9863 68.5542 17.4346ZM80.7979 17.6089V17.418C80.7979 16.7705 80.8919 16.1701 81.0801 15.6167C81.2682 15.0578 81.5394 14.5736 81.8936 14.1641C82.2477 13.749 82.6766 13.4281 83.1802 13.2012C83.6838 12.9688 84.2482 12.8525 84.8735 12.8525C85.5044 12.8525 86.0716 12.9688 86.5752 13.2012C87.0843 13.4281 87.516 13.749 87.8701 14.1641C88.2298 14.5736 88.5037 15.0578 88.6919 15.6167C88.88 16.1701 88.9741 16.7705 88.9741 17.418V17.6089C88.9741 18.2563 88.88 18.8568 88.6919 19.4102C88.5037 19.9635 88.2298 20.4478 87.8701 20.8628C87.516 21.2723 87.0871 21.5933 86.5835 21.8257C86.0854 22.0526 85.521 22.166 84.8901 22.166C84.2593 22.166 83.6921 22.0526 83.1885 21.8257C82.6849 21.5933 82.2533 21.2723 81.8936 20.8628C81.5394 20.4478 81.2682 19.9635 81.0801 19.4102C80.8919 18.8568 80.7979 18.2563 80.7979 17.6089ZM82.3335 17.418V17.6089C82.3335 18.0571 82.3861 18.4805 82.4912 18.8789C82.5964 19.2718 82.7541 19.6204 82.9644 19.9248C83.1802 20.2292 83.4486 20.4699 83.7695 20.647C84.0905 20.8185 84.464 20.9043 84.8901 20.9043C85.3107 20.9043 85.6787 20.8185 85.9941 20.647C86.3151 20.4699 86.5807 20.2292 86.791 19.9248C87.0013 19.6204 87.159 19.2718 87.2642 18.8789C87.3748 18.4805 87.4302 18.0571 87.4302 17.6089V17.418C87.4302 16.9753 87.3748 16.5575 87.2642 16.1646C87.159 15.7661 86.9985 15.4147 86.7827 15.1104C86.5724 14.8005 86.3068 14.557 85.9858 14.3799C85.6704 14.2028 85.2996 14.1143 84.8735 14.1143C84.453 14.1143 84.0822 14.2028 83.7612 14.3799C83.4458 14.557 83.1802 14.8005 82.9644 15.1104C82.7541 15.4147 82.5964 15.7661 82.4912 16.1646C82.3861 16.5575 82.3335 16.9753 82.3335 17.418ZM93.1909 22H91.6553V12.0723C91.6553 11.4248 91.7715 10.8797 92.0039 10.437C92.2419 9.98877 92.5822 9.6512 93.0249 9.42432C93.4676 9.19189 93.9933 9.07568 94.6021 9.07568C94.7791 9.07568 94.9562 9.08675 95.1333 9.10889C95.3159 9.13102 95.493 9.16423 95.6646 9.2085L95.5815 10.4619C95.4653 10.4342 95.3325 10.4149 95.1831 10.4038C95.0392 10.3927 94.8953 10.3872 94.7515 10.3872C94.425 10.3872 94.1427 10.4536 93.9048 10.5864C93.6724 10.7137 93.4953 10.9019 93.3735 11.1509C93.2518 11.3999 93.1909 11.707 93.1909 12.0723V22ZM95.1001 13.0186V14.1973H90.2358V13.0186H95.1001ZM100.62 17.6089V17.418C100.62 16.7705 100.714 16.1701 100.902 15.6167C101.09 15.0578 101.362 14.5736 101.716 14.1641C102.07 13.749 102.499 13.4281 103.002 13.2012C103.506 12.9688 104.07 12.8525 104.696 12.8525C105.327 12.8525 105.894 12.9688 106.397 13.2012C106.907 13.4281 107.338 13.749 107.692 14.1641C108.052 14.5736 108.326 15.0578 108.514 15.6167C108.702 16.1701 108.796 16.7705 108.796 17.418V17.6089C108.796 18.2563 108.702 18.8568 108.514 19.4102C108.326 19.9635 108.052 20.4478 107.692 20.8628C107.338 21.2723 106.909 21.5933 106.406 21.8257C105.908 22.0526 105.343 22.166 104.712 22.166C104.082 22.166 103.514 22.0526 103.011 21.8257C102.507 21.5933 102.076 21.2723 101.716 20.8628C101.362 20.4478 101.09 19.9635 100.902 19.4102C100.714 18.8568 100.62 18.2563 100.62 17.6089ZM102.156 17.418V17.6089C102.156 18.0571 102.208 18.4805 102.313 18.8789C102.419 19.2718 102.576 19.6204 102.787 19.9248C103.002 20.2292 103.271 20.4699 103.592 20.647C103.913 20.8185 104.286 20.9043 104.712 20.9043C105.133 20.9043 105.501 20.8185 105.816 20.647C106.137 20.4699 106.403 20.2292 106.613 19.9248C106.824 19.6204 106.981 19.2718 107.086 18.8789C107.197 18.4805 107.252 18.0571 107.252 17.6089V17.418C107.252 16.9753 107.197 16.5575 107.086 16.1646C106.981 15.7661 106.821 15.4147 106.605 15.1104C106.395 14.8005 106.129 14.557 105.808 14.3799C105.493 14.2028 105.122 14.1143 104.696 14.1143C104.275 14.1143 103.904 14.2028 103.583 14.3799C103.268 14.557 103.002 14.8005 102.787 15.1104C102.576 15.4147 102.419 15.7661 102.313 16.1646C102.208 16.5575 102.156 16.9753 102.156 17.418ZM116.217 19.9248V13.0186H117.761V22H116.292L116.217 19.9248ZM116.508 18.0322L117.147 18.0156C117.147 18.6133 117.083 19.1667 116.956 19.6758C116.834 20.1794 116.635 20.6165 116.358 20.9873C116.082 21.3581 115.719 21.6486 115.271 21.8589C114.823 22.0636 114.278 22.166 113.636 22.166C113.199 22.166 112.797 22.1024 112.432 21.9751C112.072 21.8478 111.763 21.6514 111.502 21.3857C111.242 21.1201 111.04 20.7743 110.896 20.3481C110.758 19.922 110.689 19.4102 110.689 18.8125V13.0186H112.225V18.8291C112.225 19.2331 112.269 19.5679 112.357 19.8335C112.451 20.0936 112.576 20.3011 112.731 20.4561C112.891 20.6055 113.069 20.7106 113.262 20.7715C113.461 20.8324 113.666 20.8628 113.876 20.8628C114.529 20.8628 115.047 20.7383 115.429 20.4893C115.811 20.2347 116.084 19.8944 116.25 19.4683C116.422 19.0366 116.508 18.5579 116.508 18.0322ZM121.638 14.4297V22H120.102V13.0186H121.596L121.638 14.4297ZM124.443 12.9688L124.435 14.3965C124.308 14.3688 124.186 14.3522 124.07 14.3467C123.959 14.3356 123.832 14.3301 123.688 14.3301C123.334 14.3301 123.021 14.3854 122.75 14.4961C122.479 14.6068 122.249 14.7617 122.061 14.9609C121.873 15.1602 121.723 15.3981 121.613 15.6748C121.508 15.946 121.438 16.2448 121.405 16.5713L120.974 16.8203C120.974 16.278 121.026 15.7689 121.131 15.293C121.242 14.8171 121.411 14.3965 121.638 14.0312C121.865 13.6605 122.152 13.3727 122.501 13.168C122.855 12.9577 123.276 12.8525 123.763 12.8525C123.873 12.8525 124.001 12.8664 124.145 12.894C124.288 12.9162 124.388 12.9411 124.443 12.9688ZM131.615 14.7451V25.4531H130.071V13.0186H131.482L131.615 14.7451ZM137.667 17.4346V17.6089C137.667 18.2619 137.589 18.8678 137.434 19.4268C137.279 19.9801 137.052 20.4616 136.753 20.8711C136.46 21.2806 136.098 21.5988 135.666 21.8257C135.234 22.0526 134.739 22.166 134.18 22.166C133.61 22.166 133.107 22.0719 132.669 21.8838C132.232 21.6956 131.861 21.4217 131.557 21.062C131.253 20.7023 131.009 20.2707 130.827 19.7671C130.65 19.2635 130.528 18.6963 130.461 18.0654V17.1357C130.528 16.4717 130.652 15.8768 130.835 15.3511C131.018 14.8254 131.258 14.3771 131.557 14.0063C131.861 13.63 132.229 13.3451 132.661 13.1514C133.093 12.9521 133.591 12.8525 134.155 12.8525C134.72 12.8525 135.221 12.9632 135.658 13.1846C136.095 13.4004 136.463 13.7103 136.762 14.1143C137.061 14.5182 137.285 15.0024 137.434 15.5669C137.589 16.1258 137.667 16.7484 137.667 17.4346ZM136.123 17.6089V17.4346C136.123 16.9863 136.076 16.5658 135.981 16.1729C135.887 15.7744 135.741 15.4258 135.542 15.127C135.348 14.8226 135.099 14.5846 134.794 14.4131C134.49 14.236 134.128 14.1475 133.707 14.1475C133.32 14.1475 132.982 14.2139 132.694 14.3467C132.412 14.4795 132.171 14.6593 131.972 14.8862C131.773 15.1076 131.61 15.3621 131.482 15.6499C131.361 15.9321 131.269 16.2254 131.208 16.5298V18.6797C131.319 19.0671 131.474 19.4323 131.673 19.7754C131.873 20.113 132.138 20.3869 132.47 20.5972C132.802 20.8019 133.22 20.9043 133.724 20.9043C134.139 20.9043 134.496 20.8185 134.794 20.647C135.099 20.4699 135.348 20.2292 135.542 19.9248C135.741 19.6204 135.887 19.2718 135.981 18.8789C136.076 18.4805 136.123 18.0571 136.123 17.6089ZM143.353 22.166C142.727 22.166 142.16 22.0609 141.651 21.8506C141.147 21.6348 140.713 21.3332 140.348 20.9458C139.988 20.5584 139.711 20.0991 139.518 19.5679C139.324 19.0366 139.227 18.4556 139.227 17.8247V17.4761C139.227 16.7456 139.335 16.0954 139.551 15.5254C139.767 14.9499 140.06 14.4629 140.431 14.0645C140.801 13.666 141.222 13.3644 141.692 13.1597C142.163 12.9549 142.65 12.8525 143.153 12.8525C143.795 12.8525 144.349 12.9632 144.813 13.1846C145.284 13.4059 145.668 13.7158 145.967 14.1143C146.266 14.5072 146.487 14.972 146.631 15.5088C146.775 16.04 146.847 16.6211 146.847 17.252V17.9409H140.14V16.6875H145.312V16.5713C145.289 16.1729 145.206 15.7855 145.062 15.4092C144.924 15.0329 144.703 14.723 144.398 14.4795C144.094 14.236 143.679 14.1143 143.153 14.1143C142.805 14.1143 142.484 14.189 142.19 14.3384C141.897 14.4823 141.645 14.6981 141.435 14.9858C141.225 15.2736 141.062 15.625 140.945 16.04C140.829 16.4551 140.771 16.9338 140.771 17.4761V17.8247C140.771 18.2508 140.829 18.652 140.945 19.0283C141.067 19.3991 141.241 19.7256 141.468 20.0078C141.701 20.29 141.98 20.5114 142.307 20.6719C142.639 20.8324 143.015 20.9126 143.436 20.9126C143.978 20.9126 144.437 20.8019 144.813 20.5806C145.19 20.3592 145.519 20.0632 145.801 19.6924L146.731 20.4312C146.537 20.7244 146.291 21.0039 145.992 21.2695C145.693 21.5352 145.325 21.751 144.888 21.917C144.457 22.083 143.945 22.166 143.353 22.166ZM150.176 14.4297V22H148.64V13.0186H150.134L150.176 14.4297ZM152.981 12.9688L152.973 14.3965C152.846 14.3688 152.724 14.3522 152.608 14.3467C152.497 14.3356 152.37 14.3301 152.226 14.3301C151.872 14.3301 151.559 14.3854 151.288 14.4961C151.017 14.6068 150.787 14.7617 150.599 14.9609C150.411 15.1602 150.262 15.3981 150.151 15.6748C150.046 15.946 149.977 16.2448 149.943 16.5713L149.512 16.8203C149.512 16.278 149.564 15.7689 149.669 15.293C149.78 14.8171 149.949 14.3965 150.176 14.0312C150.403 13.6605 150.69 13.3727 151.039 13.168C151.393 12.9577 151.814 12.8525 152.301 12.8525C152.411 12.8525 152.539 12.8664 152.683 12.894C152.826 12.9162 152.926 12.9411 152.981 12.9688ZM156.825 22H155.289V12.0723C155.289 11.4248 155.405 10.8797 155.638 10.437C155.876 9.98877 156.216 9.6512 156.659 9.42432C157.101 9.19189 157.627 9.07568 158.236 9.07568C158.413 9.07568 158.59 9.08675 158.767 9.10889C158.95 9.13102 159.127 9.16423 159.298 9.2085L159.215 10.4619C159.099 10.4342 158.966 10.4149 158.817 10.4038C158.673 10.3927 158.529 10.3872 158.385 10.3872C158.059 10.3872 157.777 10.4536 157.539 10.5864C157.306 10.7137 157.129 10.9019 157.007 11.1509C156.886 11.3999 156.825 11.707 156.825 12.0723V22ZM158.734 13.0186V14.1973H153.87V13.0186H158.734ZM160.037 17.6089V17.418C160.037 16.7705 160.131 16.1701 160.319 15.6167C160.507 15.0578 160.779 14.5736 161.133 14.1641C161.487 13.749 161.916 13.4281 162.419 13.2012C162.923 12.9688 163.487 12.8525 164.113 12.8525C164.744 12.8525 165.311 12.9688 165.814 13.2012C166.324 13.4281 166.755 13.749 167.109 14.1641C167.469 14.5736 167.743 15.0578 167.931 15.6167C168.119 16.1701 168.213 16.7705 168.213 17.418V17.6089C168.213 18.2563 168.119 18.8568 167.931 19.4102C167.743 19.9635 167.469 20.4478 167.109 20.8628C166.755 21.2723 166.326 21.5933 165.823 21.8257C165.325 22.0526 164.76 22.166 164.129 22.166C163.499 22.166 162.931 22.0526 162.428 21.8257C161.924 21.5933 161.493 21.2723 161.133 20.8628C160.779 20.4478 160.507 19.9635 160.319 19.4102C160.131 18.8568 160.037 18.2563 160.037 17.6089ZM161.573 17.418V17.6089C161.573 18.0571 161.625 18.4805 161.73 18.8789C161.836 19.2718 161.993 19.6204 162.204 19.9248C162.419 20.2292 162.688 20.4699 163.009 20.647C163.33 20.8185 163.703 20.9043 164.129 20.9043C164.55 20.9043 164.918 20.8185 165.233 20.647C165.554 20.4699 165.82 20.2292 166.03 19.9248C166.241 19.6204 166.398 19.2718 166.503 18.8789C166.614 18.4805 166.669 18.0571 166.669 17.6089V17.418C166.669 16.9753 166.614 16.5575 166.503 16.1646C166.398 15.7661 166.238 15.4147 166.022 15.1104C165.812 14.8005 165.546 14.557 165.225 14.3799C164.91 14.2028 164.539 14.1143 164.113 14.1143C163.692 14.1143 163.321 14.2028 163 14.3799C162.685 14.557 162.419 14.8005 162.204 15.1104C161.993 15.4147 161.836 15.7661 161.73 16.1646C161.625 16.5575 161.573 16.9753 161.573 17.418ZM171.675 14.4297V22H170.139V13.0186H171.633L171.675 14.4297ZM174.48 12.9688L174.472 14.3965C174.345 14.3688 174.223 14.3522 174.107 14.3467C173.996 14.3356 173.869 14.3301 173.725 14.3301C173.371 14.3301 173.058 14.3854 172.787 14.4961C172.516 14.6068 172.286 14.7617 172.098 14.9609C171.91 15.1602 171.761 15.3981 171.65 15.6748C171.545 15.946 171.476 16.2448 171.442 16.5713L171.011 16.8203C171.011 16.278 171.063 15.7689 171.168 15.293C171.279 14.8171 171.448 14.3965 171.675 14.0312C171.902 13.6605 172.189 13.3727 172.538 13.168C172.892 12.9577 173.313 12.8525 173.8 12.8525C173.91 12.8525 174.038 12.8664 174.182 12.894C174.326 12.9162 174.425 12.9411 174.48 12.9688ZM177.427 14.8032V22H175.883V13.0186H177.344L177.427 14.8032ZM177.112 17.1689L176.398 17.144C176.403 16.5298 176.484 15.9626 176.639 15.4424C176.794 14.9167 177.023 14.4601 177.328 14.0728C177.632 13.6854 178.011 13.3866 178.465 13.1763C178.919 12.9604 179.444 12.8525 180.042 12.8525C180.463 12.8525 180.85 12.9134 181.204 13.0352C181.558 13.1514 181.865 13.3368 182.125 13.5913C182.386 13.8459 182.588 14.1724 182.731 14.5708C182.875 14.9692 182.947 15.4507 182.947 16.0151V22H181.412V16.0898C181.412 15.6195 181.331 15.2432 181.171 14.9609C181.016 14.6787 180.795 14.474 180.507 14.3467C180.219 14.2139 179.882 14.1475 179.494 14.1475C179.04 14.1475 178.661 14.2277 178.357 14.3882C178.053 14.5487 177.809 14.77 177.626 15.0522C177.444 15.3345 177.311 15.6582 177.228 16.0234C177.151 16.3831 177.112 16.765 177.112 17.1689ZM182.931 16.3223L181.901 16.6377C181.907 16.1452 181.987 15.672 182.142 15.2183C182.303 14.7645 182.532 14.3605 182.831 14.0063C183.135 13.6522 183.509 13.3727 183.952 13.168C184.394 12.9577 184.901 12.8525 185.471 12.8525C185.952 12.8525 186.378 12.9162 186.749 13.0435C187.125 13.1707 187.441 13.3672 187.695 13.6328C187.955 13.8929 188.152 14.2277 188.285 14.6372C188.417 15.0467 188.484 15.5337 188.484 16.0981V22H186.94V16.0815C186.94 15.578 186.86 15.1878 186.699 14.9111C186.544 14.6289 186.323 14.4325 186.035 14.3218C185.753 14.2056 185.415 14.1475 185.022 14.1475C184.685 14.1475 184.386 14.2056 184.126 14.3218C183.866 14.438 183.647 14.5985 183.47 14.8032C183.293 15.0024 183.158 15.2321 183.063 15.4922C182.975 15.7523 182.931 16.029 182.931 16.3223ZM196.104 20.4644V15.8408C196.104 15.4867 196.032 15.1795 195.888 14.9194C195.75 14.6538 195.54 14.4491 195.257 14.3052C194.975 14.1613 194.626 14.0894 194.211 14.0894C193.824 14.0894 193.484 14.1558 193.19 14.2886C192.903 14.4214 192.676 14.5957 192.51 14.8115C192.349 15.0273 192.269 15.2598 192.269 15.5088H190.733C190.733 15.1878 190.816 14.8696 190.982 14.5542C191.148 14.2388 191.386 13.9538 191.696 13.6992C192.012 13.4391 192.388 13.2344 192.825 13.085C193.268 12.93 193.76 12.8525 194.303 12.8525C194.956 12.8525 195.531 12.9632 196.029 13.1846C196.533 13.4059 196.926 13.7407 197.208 14.189C197.496 14.6317 197.64 15.1878 197.64 15.8574V20.041C197.64 20.3398 197.665 20.658 197.714 20.9956C197.77 21.3332 197.85 21.6237 197.955 21.8672V22H196.353C196.276 21.8229 196.215 21.5877 196.17 21.2944C196.126 20.9956 196.104 20.7189 196.104 20.4644ZM196.37 16.5547L196.386 17.6338H194.834C194.397 17.6338 194.007 17.6698 193.664 17.7417C193.32 17.8081 193.033 17.9105 192.8 18.0488C192.568 18.1872 192.391 18.3615 192.269 18.5718C192.147 18.7765 192.086 19.0173 192.086 19.2939C192.086 19.5762 192.15 19.8335 192.277 20.0659C192.405 20.2983 192.596 20.4837 192.85 20.6221C193.11 20.7549 193.428 20.8213 193.805 20.8213C194.275 20.8213 194.69 20.7217 195.05 20.5225C195.41 20.3232 195.694 20.0798 195.905 19.792C196.121 19.5042 196.237 19.2248 196.253 18.9536L196.909 19.6924C196.87 19.9248 196.765 20.1821 196.594 20.4644C196.422 20.7466 196.193 21.0177 195.905 21.2778C195.623 21.5324 195.285 21.7454 194.892 21.917C194.505 22.083 194.068 22.166 193.581 22.166C192.972 22.166 192.438 22.047 191.979 21.8091C191.525 21.5711 191.171 21.2529 190.916 20.8545C190.667 20.4505 190.542 19.9995 190.542 19.5015C190.542 19.02 190.637 18.5967 190.825 18.2314C191.013 17.8607 191.284 17.5535 191.638 17.3101C191.992 17.061 192.418 16.8729 192.917 16.7456C193.415 16.6183 193.971 16.5547 194.585 16.5547H196.37ZM201.591 14.936V22H200.055V13.0186H201.508L201.591 14.936ZM201.226 17.1689L200.586 17.144C200.592 16.5298 200.683 15.9626 200.86 15.4424C201.037 14.9167 201.286 14.4601 201.607 14.0728C201.928 13.6854 202.31 13.3866 202.753 13.1763C203.201 12.9604 203.696 12.8525 204.239 12.8525C204.681 12.8525 205.08 12.9134 205.434 13.0352C205.788 13.1514 206.09 13.3395 206.339 13.5996C206.593 13.8597 206.787 14.1973 206.92 14.6123C207.053 15.0218 207.119 15.5226 207.119 16.1147V22H205.575V16.0981C205.575 15.6278 205.506 15.2515 205.368 14.9692C205.229 14.6815 205.027 14.474 204.762 14.3467C204.496 14.2139 204.17 14.1475 203.782 14.1475C203.4 14.1475 203.052 14.2277 202.736 14.3882C202.426 14.5487 202.158 14.77 201.931 15.0522C201.71 15.3345 201.535 15.6582 201.408 16.0234C201.286 16.3831 201.226 16.765 201.226 17.1689ZM213.046 20.9043C213.411 20.9043 213.749 20.8296 214.059 20.6802C214.368 20.5308 214.623 20.326 214.822 20.0659C215.021 19.8003 215.135 19.4987 215.163 19.1611H216.624C216.596 19.6924 216.416 20.1877 216.084 20.647C215.757 21.1007 215.329 21.4688 214.797 21.751C214.266 22.0277 213.682 22.166 213.046 22.166C212.371 22.166 211.781 22.047 211.278 21.8091C210.78 21.5711 210.365 21.2446 210.033 20.8296C209.706 20.4146 209.46 19.9386 209.294 19.4019C209.133 18.8595 209.053 18.2868 209.053 17.6836V17.335C209.053 16.7318 209.133 16.1618 209.294 15.625C209.46 15.0827 209.706 14.604 210.033 14.189C210.365 13.7739 210.78 13.4474 211.278 13.2095C211.781 12.9715 212.371 12.8525 213.046 12.8525C213.749 12.8525 214.363 12.9964 214.889 13.2842C215.414 13.5664 215.827 13.9538 216.125 14.4463C216.43 14.9333 216.596 15.4867 216.624 16.1064H215.163C215.135 15.7357 215.03 15.4009 214.847 15.1021C214.67 14.8032 214.427 14.5653 214.117 14.3882C213.812 14.2056 213.455 14.1143 213.046 14.1143C212.576 14.1143 212.18 14.2083 211.859 14.3965C211.543 14.5791 211.292 14.8281 211.104 15.1436C210.921 15.4535 210.788 15.7993 210.705 16.1812C210.628 16.5575 210.589 16.9421 210.589 17.335V17.6836C210.589 18.0765 210.628 18.4639 210.705 18.8457C210.783 19.2275 210.913 19.5734 211.095 19.8833C211.283 20.1932 211.535 20.4422 211.851 20.6304C212.172 20.813 212.57 20.9043 213.046 20.9043ZM222.077 22.166C221.452 22.166 220.885 22.0609 220.375 21.8506C219.872 21.6348 219.438 21.3332 219.072 20.9458C218.713 20.5584 218.436 20.0991 218.242 19.5679C218.049 19.0366 217.952 18.4556 217.952 17.8247V17.4761C217.952 16.7456 218.06 16.0954 218.275 15.5254C218.491 14.9499 218.785 14.4629 219.155 14.0645C219.526 13.666 219.947 13.3644 220.417 13.1597C220.887 12.9549 221.374 12.8525 221.878 12.8525C222.52 12.8525 223.073 12.9632 223.538 13.1846C224.008 13.4059 224.393 13.7158 224.692 14.1143C224.991 14.5072 225.212 14.972 225.356 15.5088C225.5 16.04 225.572 16.6211 225.572 17.252V17.9409H218.865V16.6875H224.036V16.5713C224.014 16.1729 223.931 15.7855 223.787 15.4092C223.649 15.0329 223.427 14.723 223.123 14.4795C222.819 14.236 222.404 14.1143 221.878 14.1143C221.529 14.1143 221.208 14.189 220.915 14.3384C220.622 14.4823 220.37 14.6981 220.16 14.9858C219.949 15.2736 219.786 15.625 219.67 16.04C219.554 16.4551 219.496 16.9338 219.496 17.4761V17.8247C219.496 18.2508 219.554 18.652 219.67 19.0283C219.792 19.3991 219.966 19.7256 220.193 20.0078C220.425 20.29 220.705 20.5114 221.031 20.6719C221.363 20.8324 221.74 20.9126 222.16 20.9126C222.702 20.9126 223.162 20.8019 223.538 20.5806C223.914 20.3592 224.244 20.0632 224.526 19.6924L225.456 20.4312C225.262 20.7244 225.016 21.0039 224.717 21.2695C224.418 21.5352 224.05 21.751 223.613 21.917C223.181 22.083 222.669 22.166 222.077 22.166ZM237.4 13.0186H238.795V21.8091C238.795 22.6004 238.634 23.2756 238.313 23.8345C237.993 24.3934 237.544 24.8167 236.969 25.1045C236.399 25.3978 235.74 25.5444 234.993 25.5444C234.683 25.5444 234.318 25.4946 233.897 25.395C233.482 25.3009 233.073 25.1377 232.669 24.9053C232.271 24.6784 231.936 24.3713 231.665 23.9839L232.47 23.0708C232.846 23.5246 233.239 23.84 233.648 24.0171C234.063 24.1942 234.473 24.2827 234.877 24.2827C235.364 24.2827 235.785 24.1914 236.139 24.0088C236.493 23.8262 236.767 23.555 236.96 23.1953C237.16 22.8411 237.259 22.404 237.259 21.8838V14.9941L237.4 13.0186ZM231.216 17.6089V17.4346C231.216 16.7484 231.297 16.1258 231.457 15.5669C231.623 15.0024 231.858 14.5182 232.163 14.1143C232.472 13.7103 232.846 13.4004 233.283 13.1846C233.72 12.9632 234.213 12.8525 234.761 12.8525C235.325 12.8525 235.818 12.9521 236.238 13.1514C236.664 13.3451 237.024 13.63 237.317 14.0063C237.616 14.3771 237.851 14.8254 238.023 15.3511C238.194 15.8768 238.313 16.4717 238.38 17.1357V17.8994C238.319 18.5579 238.2 19.1501 238.023 19.6758C237.851 20.2015 237.616 20.6497 237.317 21.0205C237.024 21.3913 236.664 21.6763 236.238 21.8755C235.812 22.0692 235.314 22.166 234.744 22.166C234.207 22.166 233.72 22.0526 233.283 21.8257C232.852 21.5988 232.481 21.2806 232.171 20.8711C231.861 20.4616 231.623 19.9801 231.457 19.4268C231.297 18.8678 231.216 18.2619 231.216 17.6089ZM232.752 17.4346V17.6089C232.752 18.0571 232.796 18.4777 232.885 18.8706C232.979 19.2635 233.12 19.6094 233.308 19.9082C233.502 20.207 233.748 20.4422 234.047 20.6138C234.346 20.7798 234.703 20.8628 235.118 20.8628C235.627 20.8628 236.047 20.7549 236.379 20.5391C236.711 20.3232 236.974 20.0382 237.168 19.6841C237.367 19.3299 237.522 18.9453 237.633 18.5303V16.5298C237.572 16.2254 237.478 15.9321 237.351 15.6499C237.229 15.3621 237.068 15.1076 236.869 14.8862C236.675 14.6593 236.435 14.4795 236.147 14.3467C235.859 14.2139 235.522 14.1475 235.134 14.1475C234.714 14.1475 234.351 14.236 234.047 14.4131C233.748 14.5846 233.502 14.8226 233.308 15.127C233.12 15.4258 232.979 15.7744 232.885 16.1729C232.796 16.5658 232.752 16.9863 232.752 17.4346ZM246.623 19.9248V13.0186H248.167V22H246.697L246.623 19.9248ZM246.913 18.0322L247.552 18.0156C247.552 18.6133 247.489 19.1667 247.361 19.6758C247.24 20.1794 247.04 20.6165 246.764 20.9873C246.487 21.3581 246.125 21.6486 245.676 21.8589C245.228 22.0636 244.683 22.166 244.041 22.166C243.604 22.166 243.203 22.1024 242.837 21.9751C242.478 21.8478 242.168 21.6514 241.908 21.3857C241.648 21.1201 241.446 20.7743 241.302 20.3481C241.163 19.922 241.094 19.4102 241.094 18.8125V13.0186H242.63V18.8291C242.63 19.2331 242.674 19.5679 242.763 19.8335C242.857 20.0936 242.981 20.3011 243.136 20.4561C243.297 20.6055 243.474 20.7106 243.667 20.7715C243.867 20.8324 244.071 20.8628 244.282 20.8628C244.935 20.8628 245.452 20.7383 245.834 20.4893C246.216 20.2347 246.49 19.8944 246.656 19.4683C246.827 19.0366 246.913 18.5579 246.913 18.0322ZM253.031 21.0703L255.529 13.0186H257.173L253.57 23.3862C253.487 23.6076 253.377 23.8455 253.238 24.1001C253.105 24.3602 252.934 24.6064 252.724 24.8389C252.513 25.0713 252.259 25.2594 251.96 25.4033C251.667 25.5527 251.315 25.6274 250.906 25.6274C250.784 25.6274 250.629 25.6108 250.441 25.5776C250.253 25.5444 250.12 25.5168 250.042 25.4946L250.034 24.2495C250.078 24.255 250.148 24.2606 250.242 24.2661C250.341 24.2772 250.41 24.2827 250.449 24.2827C250.798 24.2827 251.094 24.2357 251.337 24.1416C251.581 24.0531 251.786 23.9009 251.952 23.6851C252.123 23.4748 252.27 23.1842 252.392 22.8135L253.031 21.0703ZM251.196 13.0186L253.529 19.9912L253.927 21.6099L252.823 22.1743L249.52 13.0186H251.196ZM263.789 19.6177C263.789 19.3963 263.739 19.1916 263.639 19.0034C263.545 18.8097 263.349 18.6354 263.05 18.4805C262.757 18.32 262.314 18.1816 261.722 18.0654C261.224 17.9603 260.773 17.8358 260.369 17.6919C259.97 17.548 259.63 17.3737 259.348 17.1689C259.071 16.9642 258.858 16.7235 258.708 16.4468C258.559 16.1701 258.484 15.8464 258.484 15.4756C258.484 15.1214 258.562 14.7866 258.717 14.4712C258.877 14.1558 259.101 13.8763 259.389 13.6328C259.682 13.3893 260.034 13.1984 260.443 13.0601C260.853 12.9217 261.309 12.8525 261.813 12.8525C262.532 12.8525 263.147 12.9798 263.656 13.2344C264.165 13.4889 264.555 13.8293 264.826 14.2554C265.097 14.6759 265.233 15.1436 265.233 15.6582H263.697C263.697 15.4092 263.623 15.1685 263.473 14.936C263.329 14.6981 263.116 14.5016 262.834 14.3467C262.557 14.1917 262.217 14.1143 261.813 14.1143C261.387 14.1143 261.041 14.1807 260.775 14.3135C260.515 14.4408 260.324 14.604 260.203 14.8032C260.086 15.0024 260.028 15.2127 260.028 15.4341C260.028 15.6001 260.056 15.7495 260.111 15.8823C260.172 16.0096 260.277 16.1286 260.427 16.2393C260.576 16.3444 260.786 16.444 261.058 16.5381C261.329 16.6322 261.675 16.7262 262.095 16.8203C262.831 16.9863 263.437 17.1855 263.913 17.418C264.389 17.6504 264.743 17.9354 264.976 18.2729C265.208 18.6105 265.324 19.02 265.324 19.5015C265.324 19.8944 265.241 20.2541 265.075 20.5806C264.915 20.9071 264.68 21.1893 264.37 21.4272C264.065 21.6597 263.7 21.8423 263.274 21.9751C262.853 22.1024 262.38 22.166 261.854 22.166C261.063 22.166 260.394 22.0249 259.846 21.7427C259.298 21.4604 258.883 21.0952 258.601 20.647C258.318 20.1987 258.177 19.7256 258.177 19.2275H259.721C259.743 19.6481 259.865 19.9829 260.086 20.2319C260.308 20.4754 260.579 20.6497 260.9 20.7549C261.221 20.8545 261.539 20.9043 261.854 20.9043C262.275 20.9043 262.626 20.849 262.909 20.7383C263.196 20.6276 263.415 20.4754 263.564 20.2817C263.714 20.0881 263.789 19.8667 263.789 19.6177Z" fill="black"></path><path d="M241.356 39V30.706L241.629 30.771C241.525 31.005 241.325 31.239 241.031 31.473C240.736 31.707 240.394 31.9107 240.004 32.084C239.622 32.2573 239.228 32.3743 238.821 32.435V31.434C239.228 31.3647 239.618 31.2433 239.991 31.07C240.363 30.8967 240.693 30.6887 240.979 30.446C241.273 30.1947 241.49 29.926 241.629 29.64H242.396V39H241.356ZM247.292 39.13C246.633 39.13 246.061 39.013 245.576 38.779C245.099 38.545 244.731 38.2243 244.471 37.817C244.211 37.4097 244.081 36.9547 244.081 36.452C244.081 35.984 244.185 35.5593 244.393 35.178C244.601 34.7967 244.878 34.4933 245.225 34.268C245.58 34.0427 245.97 33.93 246.395 33.93L246.421 34.203C246.022 34.203 245.663 34.1077 245.342 33.917C245.021 33.7177 244.77 33.449 244.588 33.111C244.406 32.773 244.315 32.4003 244.315 31.993C244.315 31.5077 244.441 31.0787 244.692 30.706C244.943 30.3333 245.294 30.043 245.745 29.835C246.196 29.6183 246.716 29.51 247.305 29.51C247.894 29.51 248.41 29.6183 248.852 29.835C249.294 30.043 249.641 30.3333 249.892 30.706C250.143 31.0787 250.269 31.5033 250.269 31.98C250.269 32.396 250.178 32.773 249.996 33.111C249.814 33.4403 249.563 33.7047 249.242 33.904C248.921 34.1033 248.557 34.203 248.15 34.203L248.189 33.93C248.622 33.93 249.012 34.0427 249.359 34.268C249.706 34.4933 249.983 34.7967 250.191 35.178C250.399 35.5593 250.503 35.984 250.503 36.452C250.503 36.9547 250.373 37.4097 250.113 37.817C249.853 38.2243 249.48 38.545 248.995 38.779C248.518 39.013 247.951 39.13 247.292 39.13ZM247.292 38.194C247.925 38.194 248.423 38.025 248.787 37.687C249.16 37.349 249.346 36.9027 249.346 36.348C249.346 35.7933 249.164 35.3557 248.8 35.035C248.436 34.7143 247.933 34.554 247.292 34.554C246.651 34.554 246.148 34.7143 245.784 35.035C245.42 35.3557 245.238 35.7933 245.238 36.348C245.238 36.9027 245.42 37.349 245.784 37.687C246.157 38.025 246.659 38.194 247.292 38.194ZM247.292 33.644C247.864 33.644 248.31 33.501 248.631 33.215C248.96 32.929 249.125 32.5477 249.125 32.071C249.125 31.577 248.956 31.1827 248.618 30.888C248.28 30.5933 247.838 30.446 247.292 30.446C246.737 30.446 246.291 30.5933 245.953 30.888C245.624 31.1827 245.459 31.577 245.459 32.071C245.459 32.5477 245.624 32.929 245.953 33.215C246.282 33.501 246.729 33.644 247.292 33.644ZM251.682 39V37.661H253.021V39H251.682ZM251.682 34.06V32.721H253.021V34.06H251.682ZM254.528 39V38.09C255.464 37.3187 256.244 36.6427 256.868 36.062C257.501 35.4813 258.003 34.9657 258.376 34.515C258.757 34.0643 259.026 33.6527 259.182 33.28C259.347 32.8987 259.429 32.526 259.429 32.162C259.429 31.6247 259.269 31.2043 258.948 30.901C258.627 30.5977 258.185 30.446 257.622 30.446C257.041 30.446 256.573 30.6107 256.218 30.94C255.863 31.2693 255.646 31.7417 255.568 32.357H254.45C254.537 31.5077 254.862 30.823 255.425 30.303C255.997 29.7743 256.755 29.51 257.7 29.51C258.575 29.51 259.273 29.744 259.793 30.212C260.313 30.68 260.573 31.3213 260.573 32.136C260.573 32.578 260.486 33.02 260.313 33.462C260.148 33.904 259.871 34.3677 259.481 34.853C259.1 35.3383 258.593 35.8757 257.96 36.465C257.336 37.0457 256.56 37.7043 255.633 38.441L255.386 38.064H260.729V39H254.528ZM265.731 39V36.53L265.757 36.27V30.927H266.108L262.156 36.335L261.805 35.906H268.045V36.842H261.077V36.036L265.783 29.64H266.849V39H265.731Z" fill="black"></path></svg> 