<?xml version="1.0" encoding="UTF-8"?> <svg xmlns="http://www.w3.org/2000/svg" width="136" height="136" viewBox="0 0 136 136" fill="none"> <g clip-path="url(#clip0)"> <path d="M135.037 65.991L92.6151 23.5689C91.5103 22.464 89.7206 22.464 88.6161 23.5689C87.5112 24.6737 87.5112 26.4634 88.6161 27.5679L126.211 65.1624H2.94322C1.37997 65.1624 0.11499 66.4274 0.11499 67.9907C0.11499 69.5539 1.37997 70.8189 2.94322 70.8189H126.211L88.6161 108.413C87.5112 109.518 87.5112 111.308 88.6161 112.412C89.1683 112.964 89.8922 113.241 90.6157 113.241C91.3393 113.241 92.0629 112.964 92.6154 112.412L135.038 69.9901C136.142 68.8855 136.142 67.0958 135.037 65.991Z" fill="white"></path> </g> <defs> <clipPath id="clip0"> <rect width="135.751" height="135.751" fill="white" transform="translate(0.11499 0.115234)"></rect> </clipPath> </defs> </svg> 